<?xml version="1.0" encoding="utf-8"?>
<!-- Generator: Adobe Illustrator 19.1.0, SVG Export Plug-In . SVG Version: 6.00 Build 0)  -->
<svg version="1.1"
	 id="Layer_1" xmlns:svg="http://www.w3.org/2000/svg" xmlns:dc="http://purl.org/dc/elements/1.1/" xmlns:cc="http://creativecommons.org/ns#" xmlns:rdf="http://www.w3.org/1999/02/22-rdf-syntax-ns#"
	 xmlns="http://www.w3.org/2000/svg" xmlns:xlink="http://www.w3.org/1999/xlink" x="0px" y="0px" viewBox="-167 147.3 163.5 207.7"
	 style="enable-background:new -167 147.3 163.5 207.7;" xml:space="preserve">
<style type="text/css">
	.st0{fill:#71D54F;}
</style>
<g id="g3" transform="translate(-1.579,-1.158)">
	<path id="path5" class="st0" d="M-53.4,346.2c0,5.5-4.5,10-10,10s-10-4.5-10-10c0-5.5,4.5-10,10-10S-53.4,340.6-53.4,346.2z
		 M-155.4,206.3c-5.5,0-10,4.5-10,10c0,5.5,4.5,10,10,10c5.5,0,10-4.5,10-10C-145.4,210.8-149.9,206.3-155.4,206.3z M-72.5,292.9
		c-24.3-0.8-43.7-20.8-43.7-45.3c0-3.8,0.5-7.4,1.3-11l-24.2-8.9c-1.3,1.9-3,3.5-4.9,4.9l68.9,97.3c1.6-1.1,3.3-2,5.1-2.6
		L-72.5,292.9L-72.5,292.9z M-18.4,177.4l-23.5,35.5c4.6,3.9,8.4,8.6,11.2,14l13.5-49.1C-17.6,177.6-18,177.5-18.4,177.4z
		 M-135.4,216.3c0,0.7,0,1.4-0.1,2l24.1,8.9c7.5-14.8,22.8-25,40.5-25c7.4,0,14.5,1.8,20.7,5l23.5-35.5c-1.6-1.7-2.8-3.7-3.7-5.9
		l-106.5,42.9C-135.9,211.1-135.4,213.7-135.4,216.3z M-62.5,292.1l2.6,34.3c0.6,0.1,1.2,0.2,1.8,0.4l11.2-40.9
		C-51.6,288.9-56.9,291.1-62.5,292.1L-62.5,292.1z M-11.9,148.5c-5.5,0-10,4.5-10,10c0,5.5,4.5,10,10,10s10-4.5,10-10
		C-1.9,153-6.4,148.5-11.9,148.5z"/>
	<path id="path7" d="M-70.9,212.3c-19.5,0-35.3,15.8-35.3,35.3c0,19.5,15.8,35.3,35.3,35.3s35.3-15.8,35.3-35.3
		C-35.6,228.1-51.4,212.3-70.9,212.3z M-70.9,268.9c-11.8,0-21.3-9.6-21.3-21.3s9.6-21.3,21.3-21.3s21.3,9.6,21.3,21.3
		C-49.6,259.4-59.1,268.9-70.9,268.9z"/>
</g>
</svg>
